<svg xmlns="http://www.w3.org/2000/svg" viewBox="0 0 500 500"><g id="freepik--background-complete--inject-277"><path d="M316.91,135.85c.59,1.63,10.58,30.75,10.58,30.75l-9.68,17.68-15.58-38.6-5.42,43.2-45.24-3-14.39-48.77-80.63,8.63L165,127.64l76.13-16.32L265.24,110l-2.95-19.18,21.37-12.24L287.48,108l10.11-2.1Z" style="fill:#e0e0e0"></path><path d="M328.48,141.65h0a52.71,52.71,0,0,0-15.4-29.83h0a21.09,21.09,0,0,0-17.89-5.7l-5.12.78,5.26,9.53L283,128.31l-17.55-6.61-5-10.25a44.53,44.53,0,0,0-28.16-3.94c-15.72,3.11-23.84,10.82-23.84,10.82l23.81,11.35,6.26,12,8.54,29,52.15-1,10.36-29.92Z" style="fill:#f5f5f5"></path><path d="M288.51,77.86s-26.42,23-29.93,25.58-10.55-.51-10.55-.51l-5.81-37.84s2.34-13.26,17.33-15.57,24.93,6.89,26.3,11.06S288.51,77.86,288.51,77.86Z" style="fill:#e0e0e0"></path><polygon points="327.67 167.76 338.02 176.85 349.99 214.19 339.01 223.89 315.1 186.07 315.83 179.38 327.67 167.76" style="fill:#f5f5f5"></polygon><polygon points="364.21 259.05 361.45 233.35 349.99 214.19 338.04 222.35 339.38 244.01 344.41 245.31 343.92 242.13 344.52 234.62 349.22 240.12 352.52 252.08 358.21 258.03 364.21 259.05" style="fill:#f5f5f5"></polygon><polygon points="200.84 121.06 187.32 118.37 150.4 131.56 149.37 146.17 193.93 142.18 198.81 137.53 200.84 121.06" style="fill:#f5f5f5"></polygon><polygon points="107.77 146.53 129.85 133.11 150.4 131.56 151.18 146.01 133.16 158.1 129.07 154.91 131.91 153.36 137.5 148.32 130.27 147.93 118.77 152.58 110.59 151.68 107.77 146.53" style="fill:#f5f5f5"></polygon><polygon points="296.81 188.88 296.87 204.54 253.4 201.73 251.1 184.26 296.81 188.88" style="fill:#f5f5f5"></polygon><path d="M280.6,266.69l-8.7-14.09-13.14,20.71-33.2-41.49s12.25-21.47,27.84-30.09l43.46,1.36,32.08,104-7.34,12.1L244.13,400.2s-7.13,3.77-7-1.29S243.22,373,243.22,373l3.64-13,5.93,0,9.3-3.21,23.78-46.1,6.09,2.93,4.73-11.71Z" style="fill:#e0e0e0"></path><path d="M165.87,456.74s49.13-109,48.92-108.42,25.28-42.16,25.28-42.16l20.6-35.85-35.11-38.49-21.38,93.8-17.8,17.43-16.13,61.09-8.52,6.35-5.18,39.67S160,464.77,165.87,456.74Z" style="fill:#e0e0e0"></path><polygon points="245.14 84.14 278.56 70.89 277.68 66.39 243.42 72.9 245.14 84.14" style="fill:#f5f5f5"></polygon><rect x="125.24" y="444.27" width="207.18" height="30.51" style="fill:#f5f5f5"></rect><rect x="351.49" y="33.74" width="96.03" height="169.08" transform="translate(799.01 236.55) rotate(180)" style="fill:#fff"></rect><path d="M448,203.32H351V33.24h97Zm-96-1h95V34.24H352Z" style="fill:#e0e0e0"></path><rect x="351.28" y="173.22" width="96.24" height="29.52" transform="translate(798.8 375.96) rotate(180)" style="fill:#e0e0e0"></rect><path d="M427.81,72.58c.18.49,3.2,9.29,3.2,9.29l-2.93,5.34-4.7-11.66-1.64,13-13.66-.92L403.73,73l-24.36,2.61,2.56-5.46,23-4.93,7.27-.39L411.31,59l6.46-3.7,1.15,8.88,3.06-.64Z" style="fill:#e0e0e0"></path><path d="M431.31,74.33h0a16,16,0,0,0-4.65-9h0a6.43,6.43,0,0,0-5.41-1.72l-1.54.24,1.58,2.88-3.71,3.58-5.3-2-1.52-3.1a13.41,13.41,0,0,0-8.5-1.19,15.43,15.43,0,0,0-7.21,3.27l7.2,3.43,1.89,3.61,2.58,8.75,15.75-.29,3.13-9Z" style="fill:#f5f5f5"></path><path d="M419.23,55.07s-8,7-9,7.72-3.19-.15-3.19-.15l-1.76-11.43a6.12,6.12,0,0,1,5.24-4.7c4.53-.7,7.53,2.08,7.94,3.34A40.06,40.06,0,0,1,419.23,55.07Z" style="fill:#e0e0e0"></path><polygon points="431.06 82.22 434.19 84.97 437.8 96.24 434.49 99.17 427.27 87.75 427.49 85.73 431.06 82.22" style="fill:#f5f5f5"></polygon><polygon points="442.04 109.22 441.2 101.46 437.8 96.24 434.2 98.71 434.6 105.25 436.12 105.65 435.97 104.68 436.15 102.41 437.57 104.08 438.57 107.69 440.29 109.49 442.04 109.22" style="fill:#f5f5f5"></polygon><polygon points="392.75 68.12 388.67 67.3 377.52 71.29 377.21 75.7 390.67 74.49 392.14 73.09 392.75 68.12" style="fill:#f5f5f5"></polygon><polygon points="364.64 75.81 371.31 71.75 377.52 71.29 377.75 75.65 372.31 79.3 371.08 78.34 371.93 77.87 373.62 76.35 371.44 76.23 367.96 77.64 365.49 77.36 364.64 75.81" style="fill:#f5f5f5"></polygon><polygon points="421.74 88.6 421.76 93.33 408.63 92.48 407.94 87.2 421.74 88.6" style="fill:#f5f5f5"></polygon><path d="M416.84,112.1l-2.62-4.25-4,6.25-10-12.53s3.7-6.48,8.41-9.09l13.13.41,9.69,31.4L429.23,128l-23.4,24.48s-2.16,1.14-2.12-.39,1.85-7.81,1.85-7.81l1.09-3.94h1.8l2.81-1,7.18-13.92,1.84.88,1.43-3.54Z" style="fill:#e0e0e0"></path><path d="M382.19,169.51S397,136.57,397,136.76,404.6,124,404.6,124l6.23-10.82-10.61-11.63-6.46,28.33-5.37,5.27-4.88,18.45-2.57,1.92-1.57,12S380.41,171.94,382.19,169.51Z" style="fill:#e0e0e0"></path><polygon points="406.14 56.96 416.23 52.96 415.96 51.6 405.61 53.56 406.14 56.96" style="fill:#f5f5f5"></polygon><rect x="351.28" y="33.66" width="27.91" height="156.27" transform="translate(730.47 223.59) rotate(180)" style="fill:#e0e0e0"></rect><path d="M364.93,39.52c4.63,0,7.94,3.56,7.94,8.34a7.93,7.93,0,0,1-2.72,6.32L368,51.9a4.93,4.93,0,0,0,1.8-3.87A4.92,4.92,0,0,0,360,48a4.9,4.9,0,0,0,1.83,3.87l-2.11,2.28A7.89,7.89,0,0,1,357,47.84C357,43.08,360.3,39.52,364.93,39.52Z" style="fill:#fff"></path><path d="M364.93,55.27c4.56,0,7.94,3.56,7.94,8.4s-3.35,8.41-7.94,8.41S357,68.5,357,63.67,360.36,55.27,364.93,55.27Zm0,13.21A4.81,4.81,0,1,0,360,63.67,4.68,4.68,0,0,0,364.93,68.48Z" style="fill:#fff"></path><path d="M372.61,88.84H357.25V85.92l9.32-7.66h-9.32V74.75h15.36v2.94l-9.33,7.64h9.33Z" style="fill:#fff"></path><path d="M372.61,107.15l-15.36-6.65V97l15.36-6.62v3.84l-11,4.67,11,4.74Z" style="fill:#fff"></path><path d="M360.1,120.31h-2.85V108.42h15.36V120h-2.85V112h-3.34v7.13h-2.76V112H360.1Z" style="fill:#fff"></path><path d="M372.61,137.22H357.25v-2.91l9.32-7.66h-9.32v-3.51h15.36v2.94l-9.33,7.63h9.33Z" style="fill:#fff"></path><path d="M369.71,144v-4.91h2.9v13.38h-2.9V147.6H357.25V144Z" style="fill:#fff"></path><path d="M372.61,154.42V158H357.25v-3.55Z" style="fill:#fff"></path><path d="M364.93,160.65c4.56,0,7.94,3.55,7.94,8.4s-3.35,8.4-7.94,8.4-7.94-3.57-7.94-8.4S360.36,160.65,364.93,160.65Zm0,13.2a4.81,4.81,0,1,0-4.92-4.8A4.68,4.68,0,0,0,364.93,173.85Z" style="fill:#fff"></path><path d="M372.61,194.21H357.25v-2.92l9.32-7.65h-9.32v-3.52h15.36v2.94l-9.33,7.64h9.33Z" style="fill:#fff"></path><path d="M374.63,186.61a2.94,2.94,0,0,1,.4,0,10.66,10.66,0,0,1,1.15.28c.5.15,1.1.37,1.83.56a5.17,5.17,0,0,0,2.53.1,2.68,2.68,0,0,0,2.11-2.08,3,3,0,0,0-.22-1.74A1.26,1.26,0,0,0,381,183a2,2,0,0,0-1.17,1.53,2.9,2.9,0,0,0,.21,2.12c.71,1.39,2.32,2.11,3.93,2.71a18.1,18.1,0,0,0,5.28,1.31,8.46,8.46,0,0,0,5.52-1.46,6.93,6.93,0,0,0,2.88-5.26,6.07,6.07,0,0,0-.57-3.14,3.58,3.58,0,0,0-2.42-2,2.36,2.36,0,0,0-1.55.16,2.23,2.23,0,0,0-1.06,1.16,4.2,4.2,0,0,0,.18,3.29,7.38,7.38,0,0,0,2.34,2.64,29.8,29.8,0,0,0,3.12,2,28.21,28.21,0,0,0,7.07,2.84c2.49.58,5.18,1.05,7.71.37a6.29,6.29,0,0,0,3.19-2,7.49,7.49,0,0,0,1.53-3.44,7.79,7.79,0,0,0-.2-3.72,5.16,5.16,0,0,0-2-2.92,2.51,2.51,0,0,0-3.14.3,3.6,3.6,0,0,0-.69,3.23,6.66,6.66,0,0,0,1.67,3,28.55,28.55,0,0,0,2.53,2.4,16.42,16.42,0,0,0,5.78,3.28,9.37,9.37,0,0,0,6.13-.22,7.8,7.8,0,0,0,4.15-3.89,9,9,0,0,0,.78-5.26,6.76,6.76,0,0,0-.84-2.33,3.35,3.35,0,0,0-1.7-1.51,1.8,1.8,0,0,0-1.91.58,2,2,0,0,0-.25,1.92,8.48,8.48,0,0,0,2.29,3,15.27,15.27,0,0,0,2.59,1.95,14.7,14.7,0,0,0,4.15,1.69c.5.11.89.19,1.15.22a1.76,1.76,0,0,1,.39.08,9.13,9.13,0,0,1-1.57-.2,13.5,13.5,0,0,1-4.22-1.62,15,15,0,0,1-2.66-1.94,15.32,15.32,0,0,1-1.31-1.35,5.35,5.35,0,0,1-1.09-1.75,2.31,2.31,0,0,1,.29-2.2,2.1,2.1,0,0,1,2.24-.7,3.63,3.63,0,0,1,1.91,1.63,7.35,7.35,0,0,1,.91,2.46,9.31,9.31,0,0,1-.79,5.49,8.17,8.17,0,0,1-4.35,4.12,9.84,9.84,0,0,1-6.42.26,16.87,16.87,0,0,1-6-3.36,28.08,28.08,0,0,1-2.58-2.44,7.08,7.08,0,0,1-1.8-3.22,4.13,4.13,0,0,1,.81-3.69,3,3,0,0,1,3.78-.39,5.73,5.73,0,0,1,2.26,3.2,8.34,8.34,0,0,1,.22,4,8,8,0,0,1-1.64,3.68,6.76,6.76,0,0,1-3.45,2.2,16.4,16.4,0,0,1-8-.37,28.49,28.49,0,0,1-7.19-2.89,30.91,30.91,0,0,1-3.17-2.08,7.86,7.86,0,0,1-2.49-2.82,4.7,4.7,0,0,1-.18-3.71,2.79,2.79,0,0,1,1.29-1.4,2.88,2.88,0,0,1,1.87-.19,4,4,0,0,1,2.74,2.22,6.65,6.65,0,0,1,.61,3.38,7.4,7.4,0,0,1-3.09,5.58,8.84,8.84,0,0,1-5.8,1.51,18.72,18.72,0,0,1-5.38-1.36,13.77,13.77,0,0,1-2.36-1.11,4.64,4.64,0,0,1-1.73-1.79,3.25,3.25,0,0,1-.23-2.36,2.36,2.36,0,0,1,1.4-1.73,1.4,1.4,0,0,1,1.1.15,1.83,1.83,0,0,1,.68.81,3.18,3.18,0,0,1,.22,1.91,2.89,2.89,0,0,1-2.3,2.23,5.34,5.34,0,0,1-2.62-.15c-.74-.21-1.33-.44-1.82-.61s-.87-.27-1.13-.33Z" style="fill:#fff"></path><path d="M388.1,38.67c0-.15,12.23-.26,27.33-.26s27.33.11,27.33.26-12.24.26-27.33.26S388.1,38.81,388.1,38.67Z" style="fill:#e0e0e0"></path><path d="M362.9,6.71c.14,0,.26,6,.26,13.48s-.12,13.47-.26,13.47-.27-6-.27-13.47S362.75,6.71,362.9,6.71Z" style="fill:#e0e0e0"></path><path d="M431.25,6.71c.14,0,.26,6,.26,13.48s-.12,13.47-.26,13.47-.26-6-.26-13.47S431.1,6.71,431.25,6.71Z" style="fill:#e0e0e0"></path><rect x="54.75" y="36.57" width="96.03" height="169.08" style="fill:#fff"></rect><path d="M151.28,206.16h-97V36.07h97Zm-96-1h95V37.07h-95Z" style="fill:#e0e0e0"></path><rect x="54.75" y="176.06" width="96.24" height="29.52" style="fill:#e0e0e0"></rect><path d="M74.46,75.42c-.18.49-3.2,9.29-3.2,9.29l2.93,5.34,4.7-11.66,1.64,13,13.67-.92,4.34-14.73,24.36,2.6-2.56-5.45L97.34,68l-7.27-.39L91,61.83l-6.46-3.7L83.35,67l-3-.64Z" style="fill:#e0e0e0"></path><path d="M71,77.17h0a16,16,0,0,1,4.66-9h0A6.37,6.37,0,0,1,81,66.44l1.55.24L81,69.55l3.71,3.59,5.3-2,1.52-3.1A13.43,13.43,0,0,1,100,66.86a15.43,15.43,0,0,1,7.2,3.27L100,73.56l-1.9,3.61-2.58,8.75L79.8,85.63l-3.13-9Z" style="fill:#f5f5f5"></path><path d="M83,57.91s8,7,9,7.72,3.18-.15,3.18-.15L97,54.05a6.14,6.14,0,0,0-5.24-4.71c-4.52-.69-7.53,2.08-7.94,3.35A41.91,41.91,0,0,0,83,57.91Z" style="fill:#e0e0e0"></path><polygon points="71.21 85.06 68.08 87.81 64.47 99.08 67.78 102.01 75.01 90.59 74.79 88.57 71.21 85.06" style="fill:#f5f5f5"></polygon><polygon points="60.23 112.06 61.07 104.3 64.47 99.08 68.08 101.55 67.67 108.09 66.15 108.49 66.3 107.52 66.12 105.25 64.7 106.92 63.7 110.53 61.98 112.33 60.23 112.06" style="fill:#f5f5f5"></polygon><polygon points="109.52 70.95 113.6 70.14 124.75 74.13 125.07 78.54 111.61 77.33 110.13 75.93 109.52 70.95" style="fill:#f5f5f5"></polygon><polygon points="137.63 78.65 130.96 74.59 124.75 74.13 124.52 78.49 129.96 82.14 131.2 81.18 130.34 80.71 128.65 79.19 130.84 79.07 134.31 80.47 136.78 80.2 137.63 78.65" style="fill:#f5f5f5"></polygon><polygon points="80.53 91.44 80.51 96.17 93.64 95.32 94.34 90.04 80.53 91.44" style="fill:#f5f5f5"></polygon><path d="M85.43,114.94l2.62-4.25,4,6.25,10-12.53s-3.7-6.48-8.41-9.09l-13.13.41-9.68,31.4L73,130.79l23.4,24.48s2.16,1.14,2.12-.39-1.84-7.81-1.84-7.81l-1.1-3.94H93.83l-2.81-1-7.19-13.93-1.84.89-1.42-3.54Z" style="fill:#e0e0e0"></path><path d="M120.08,172.35s-14.84-32.94-14.78-32.75-7.63-12.74-7.63-12.74L91.45,116l10.6-11.62,6.46,28.33,5.38,5.27,4.87,18.45,2.57,1.92,1.57,12S121.86,174.77,120.08,172.35Z" style="fill:#e0e0e0"></path><polygon points="96.14 59.8 86.04 55.8 86.31 54.44 96.66 56.41 96.14 59.8" style="fill:#f5f5f5"></polygon><rect x="123.09" y="36.5" width="27.91" height="156.27" style="fill:#e0e0e0"></rect><path d="M137,42.36c4.63,0,7.94,3.56,7.94,8.34A8,8,0,0,1,142.22,57l-2.11-2.28a5,5,0,0,0,1.8-3.87,4.92,4.92,0,0,0-9.83,0,4.94,4.94,0,0,0,1.82,3.87L131.8,57a7.9,7.9,0,0,1-2.75-6.34C129.05,45.92,132.37,42.36,137,42.36Z" style="fill:#fff"></path><path d="M137,58.11c4.56,0,7.94,3.55,7.94,8.4s-3.36,8.41-7.94,8.41-7.95-3.58-7.95-8.41S132.43,58.11,137,58.11Zm0,13.21a4.81,4.81,0,1,0-4.92-4.81A4.69,4.69,0,0,0,137,71.32Z" style="fill:#fff"></path><path d="M144.68,91.68H129.32V88.76l9.32-7.66h-9.32V77.59h15.36v2.94l-9.33,7.63h9.33Z" style="fill:#fff"></path><path d="M144.68,110l-15.36-6.65V99.83l15.36-6.62v3.84l-11,4.67,11,4.74Z" style="fill:#fff"></path><path d="M132.17,123.15h-2.85V111.26h15.36v11.61h-2.86v-8.08h-3.33v7.13h-2.77v-7.13h-3.55Z" style="fill:#fff"></path><path d="M144.68,140.06H129.32v-2.91l9.32-7.66h-9.32V126h15.36v2.94l-9.33,7.63h9.33Z" style="fill:#fff"></path><path d="M141.78,146.88V142h2.9v13.38h-2.9v-4.91H129.32v-3.56Z" style="fill:#fff"></path><path d="M144.68,157.26v3.55H129.32v-3.55Z" style="fill:#fff"></path><path d="M137,163.49c4.56,0,7.94,3.55,7.94,8.4s-3.36,8.4-7.94,8.4-7.95-3.57-7.95-8.4S132.43,163.49,137,163.49Zm0,13.2a4.81,4.81,0,1,0-4.92-4.8A4.68,4.68,0,0,0,137,176.69Z" style="fill:#fff"></path><path d="M144.68,197.05H129.32v-2.92l9.32-7.66h-9.32V183h15.36v2.94l-9.33,7.64h9.33Z" style="fill:#fff"></path><path d="M127.64,189.45s-.13,0-.39.09-.64.17-1.12.33-1.09.4-1.82.6a5.26,5.26,0,0,1-2.63.16,2.9,2.9,0,0,1-2.3-2.23,3.18,3.18,0,0,1,.22-1.91,1.83,1.83,0,0,1,.68-.81,1.41,1.41,0,0,1,1.1-.15,2.36,2.36,0,0,1,1.4,1.73,3.3,3.3,0,0,1-.22,2.36,4.74,4.74,0,0,1-1.74,1.79,13.77,13.77,0,0,1-2.36,1.11,18.64,18.64,0,0,1-5.38,1.36,8.85,8.85,0,0,1-5.8-1.51,7.36,7.36,0,0,1-3.08-5.58,6.65,6.65,0,0,1,.6-3.38,4.05,4.05,0,0,1,2.74-2.22,2.88,2.88,0,0,1,1.87.19,2.71,2.71,0,0,1,1.29,1.4,4.65,4.65,0,0,1-.18,3.71,7.77,7.77,0,0,1-2.49,2.82,30.76,30.76,0,0,1-3.16,2.08,28.71,28.71,0,0,1-7.2,2.89,16.4,16.4,0,0,1-8,.37,6.73,6.73,0,0,1-3.44-2.2,8,8,0,0,1-1.65-3.68,8.34,8.34,0,0,1,.22-4,5.66,5.66,0,0,1,2.27-3.2,3,3,0,0,1,3.77.38,4.08,4.08,0,0,1,.81,3.69,7,7,0,0,1-1.79,3.23,27,27,0,0,1-2.59,2.44,16.78,16.78,0,0,1-6,3.36,9.78,9.78,0,0,1-6.42-.27,8.15,8.15,0,0,1-4.35-4.11,9.3,9.3,0,0,1-.78-5.49,7.14,7.14,0,0,1,.91-2.46,3.61,3.61,0,0,1,1.9-1.63,2.07,2.07,0,0,1,2.24.7,2.31,2.31,0,0,1,.29,2.2A5.33,5.33,0,0,1,74,185.39a17,17,0,0,1-1.32,1.35,15.33,15.33,0,0,1-2.65,1.94,14.16,14.16,0,0,1-4.23,1.62,9.13,9.13,0,0,1-1.57.2,1.76,1.76,0,0,1,.39-.08c.27,0,.65-.11,1.16-.22A14.66,14.66,0,0,0,70,188.51a14.84,14.84,0,0,0,2.59-2,8.36,8.36,0,0,0,2.29-3,2,2,0,0,0-.25-1.92,1.79,1.79,0,0,0-1.9-.58,3.39,3.39,0,0,0-1.71,1.5,7.11,7.11,0,0,0-.84,2.34,9,9,0,0,0,.78,5.26A7.78,7.78,0,0,0,75.07,194a9.37,9.37,0,0,0,6.13.23A16.42,16.42,0,0,0,87,191a26.08,26.08,0,0,0,2.53-2.41,6.6,6.6,0,0,0,1.68-3,3.63,3.63,0,0,0-.69-3.23,2.53,2.53,0,0,0-3.15-.3,5.16,5.16,0,0,0-2,2.92,7.79,7.79,0,0,0-.2,3.72,7.51,7.51,0,0,0,1.54,3.44,6.31,6.31,0,0,0,3.19,2c2.52.68,5.21.21,7.71-.37a28,28,0,0,0,7.06-2.84,29.8,29.8,0,0,0,3.12-2,7.28,7.28,0,0,0,2.34-2.64,4.14,4.14,0,0,0,.18-3.3,2.27,2.27,0,0,0-1-1.15,2.39,2.39,0,0,0-1.56-.16,3.53,3.53,0,0,0-2.42,2,6.16,6.16,0,0,0-.57,3.13,7,7,0,0,0,2.88,5.27,8.47,8.47,0,0,0,5.53,1.46,18.12,18.12,0,0,0,5.27-1.31c1.62-.6,3.22-1.32,3.93-2.71a2.9,2.9,0,0,0,.22-2.12,2.06,2.06,0,0,0-1.18-1.53,1.27,1.27,0,0,0-1.46.79,3,3,0,0,0-.21,1.75,2.67,2.67,0,0,0,2.1,2.08,5.21,5.21,0,0,0,2.54-.1c.72-.2,1.33-.41,1.82-.56a9.08,9.08,0,0,1,1.15-.28A1.72,1.72,0,0,1,127.64,189.45Z" style="fill:#fff"></path><path d="M114.17,41.51c0,.14-12.23.26-27.32.26s-27.33-.12-27.33-.26,12.23-.27,27.33-.27S114.17,41.36,114.17,41.51Z" style="fill:#e0e0e0"></path><path d="M66.37,9.55c.14,0,.26,6,.26,13.48s-.12,13.47-.26,13.47-.26-6-.26-13.47S66.22,9.55,66.37,9.55Z" style="fill:#e0e0e0"></path><path d="M134.72,9.55c.14,0,.26,6,.26,13.48s-.12,13.47-.26,13.47-.26-6-.26-13.47S134.57,9.55,134.72,9.55Z" style="fill:#e0e0e0"></path></g><g id="freepik--Floor--inject-277"><path d="M476.28,475.08c0,.14-101.32.26-226.27.26s-226.29-.12-226.29-.26S125,474.82,250,474.82,476.28,474.93,476.28,475.08Z" style="fill:#263238"></path></g><g id="freepik--character-3--inject-277"><path d="M445.85,139.91a72.4,72.4,0,0,1-11.29,8A24.27,24.27,0,0,1,421.28,151l-.36-3.83C427.74,143.27,438,140.44,445.85,139.91Z" style="fill:#455a64"></path><path d="M424.07,147.58a13.15,13.15,0,0,1,2.45-1.47,48.37,48.37,0,0,1,13-4.49,11.91,11.91,0,0,1,2.85-.34,21.2,21.2,0,0,1-2.77.7c-1.71.41-4.05,1-6.59,1.91s-4.76,1.82-6.36,2.55A19.62,19.62,0,0,1,424.07,147.58Z" style="fill:#263238"></path><path d="M431.6,186.16a12,12,0,0,0-3.67-7.16c-1.48-1.27-3.58-2.41-3.59-4.36,0-1.73,1.75-3.11,1.69-4.84-.08-2.12-2.74-3.23-3.4-5.25-.54-1.69.45-3.44.92-5.15a18.13,18.13,0,0,0,.28-6.11c-.41-5.87,1.74-13.76-.93-23l-45.58,1c-2.55,3.4-2.46,8.05-2.13,12.29s.7,8.8-1.45,12.47c-1.41,2.4-3.86,4.36-4.11,7.13-.34,3.73,3.57,7.34,2.09,10.78-1.2,2.78-5.35,3.6-6.05,6.54-.49,2.08,1.05,4.25.49,6.31-.38,1.42-1.65,2.39-2.68,3.44a12.94,12.94,0,0,0-3.36,11.58q35.92-2.22,71.59-7.46A35,35,0,0,0,431.6,186.16Z" style="fill:#263238"></path><path d="M398.79,114.25c-5.27-.54-9.72,1.78-13.92,5a26.2,26.2,0,0,0-8.79,13,31.36,31.36,0,0,0,.24,18.13,16.23,16.23,0,0,0,10.94,10.3c7.34,2.06,15.6,1.2,21.36-3.79s8.72-12.82,8.5-20.44a25.23,25.23,0,0,0-5-14.67,19.15,19.15,0,0,0-13.34-7.49" style="fill:#263238"></path><path d="M385.16,133c.63-2,.18-4.25.34-6.38.35-4.7,3.85-8.69,8.06-10.79,3.93-2,8.88-1.93,13.85-.68a18.67,18.67,0,0,1,9.07,5.07,14.66,14.66,0,0,1,3.57,12.95L396,131.28a26.71,26.71,0,0,1-6.9,5.23,4.83,4.83,0,0,1-2.46.56,2.21,2.21,0,0,1-1.95-1.4A4.64,4.64,0,0,1,385.16,133Z" style="fill:#263238"></path><path d="M408.36,121.66l-20.5,5.8a3.91,3.91,0,0,0-3.37,4l3.28,45a14,14,0,0,0,3.51,8.28l2.15,2.43a10.29,10.29,0,0,0,17.05-2.43,5.27,5.27,0,0,0,.4-1.21,8.61,8.61,0,0,0,.12-1,32.75,32.75,0,0,0-.09-6.84c-.07-4-.12-5.67-.11-5.63s8.43-1.65,9.87-12.76c.72-5.52.19-14.53-.49-21.89C419.58,128.78,415,120.77,408.36,121.66Z" style="fill:#455a64"></path><path d="M416.48,144a1.42,1.42,0,0,1-1.33,1.47,1.36,1.36,0,0,1-1.5-1.24,1.42,1.42,0,0,1,1.33-1.47A1.36,1.36,0,0,1,416.48,144Z" style="fill:#263238"></path><path d="M418.36,140.15c-.17.19-1.27-.57-2.79-.52s-2.63.84-2.8.66.09-.42.57-.79a3.85,3.85,0,0,1,2.23-.76,3.79,3.79,0,0,1,2.23.65C418.28,139.74,418.45,140.07,418.36,140.15Z" style="fill:#263238"></path><path d="M402.5,144.66a1.43,1.43,0,0,1-1.33,1.47,1.36,1.36,0,0,1-1.5-1.24,1.42,1.42,0,0,1,1.33-1.47A1.36,1.36,0,0,1,402.5,144.66Z" style="fill:#263238"></path><path d="M403.88,140.76c-.17.19-1.27-.58-2.79-.53s-2.63.84-2.8.66.09-.42.57-.79a3.9,3.9,0,0,1,2.23-.76,3.79,3.79,0,0,1,2.23.65C403.79,140.34,404,140.67,403.88,140.76Z" style="fill:#263238"></path><path d="M409.23,152a9.74,9.74,0,0,1,2.46-.52c.39,0,.76-.14.82-.41a2,2,0,0,0-.3-1.15L411,147c-1.72-4.18-3-7.62-2.81-7.69s1.7,3.27,3.42,7.45c.41,1,.81,2,1.19,2.95a2.2,2.2,0,0,1,.24,1.52.93.93,0,0,1-.62.59,2.16,2.16,0,0,1-.66.11A10.35,10.35,0,0,1,409.23,152Z" style="fill:#263238"></path><g style="opacity:0.30000000000000004"><path d="M410.8,170.06a28.18,28.18,0,0,1-14.93-3.53s3.94,7.55,15,6.2Z"></path></g><g style="opacity:0.30000000000000004"><path d="M408.69,155.72a2.76,2.76,0,0,0-2.5-.95,2.53,2.53,0,0,0-1.71,1,1.58,1.58,0,0,0-.06,1.82,1.83,1.83,0,0,0,2,.45,5.6,5.6,0,0,0,1.92-1.22,1.67,1.67,0,0,0,.42-.46.51.51,0,0,0,0-.57"></path></g><path d="M404.77,153.21c.24,0,.29,1.64,1.75,2.77s3.2.9,3.22,1.14-.38.33-1.12.37a4.13,4.13,0,0,1-2.7-.85,3.65,3.65,0,0,1-1.36-2.33C404.48,153.62,404.65,153.2,404.77,153.21Z" style="fill:#263238"></path><path d="M403.94,136.21c-.14.42-1.67.26-3.45.53s-3.22.8-3.47.43c-.11-.17.13-.57.7-1a5.79,5.79,0,0,1,2.56-1,5.86,5.86,0,0,1,2.72.25C403.66,135.69,404,136,403.94,136.21Z" style="fill:#263238"></path><path d="M418,135.63c-.25.36-1.32,0-2.58.05s-2.33.3-2.59-.06c-.11-.17.05-.52.51-.87a3.5,3.5,0,0,1,2.08-.62,3.54,3.54,0,0,1,2.08.63C418,135.11,418.16,135.46,418,135.63Z" style="fill:#263238"></path><path d="M407,118.2c.9,3,5.82,6.62,8,8.87,4.2,4.29,5,4.91,5.86,18.61a32.48,32.48,0,0,0,2.23-13.82,16.41,16.41,0,0,0-5.08-10.49,12.79,12.79,0,0,0-11-3.17" style="fill:#263238"></path><path d="M359.68,142.79a72.53,72.53,0,0,0,11.29,8,24.23,24.23,0,0,0,13.28,3.13l.35-3.84C377.78,146.15,367.52,143.32,359.68,142.79Z" style="fill:#455a64"></path><path d="M381.46,150.46a20.45,20.45,0,0,1-2.62-1.15c-1.6-.72-3.83-1.67-6.36-2.55s-4.88-1.49-6.59-1.9a19.63,19.63,0,0,1-2.76-.71,13,13,0,0,1,2.84.35A47.89,47.89,0,0,1,379,149,12.52,12.52,0,0,1,381.46,150.46Z" style="fill:#263238"></path><path d="M408.64,121.29l-.05-1.48a101.36,101.36,0,0,0-18.54,4.12c-3.27,1-6.68,2.41-8.74,5.16-2.62,3.48-2.45,8.24-2.15,12.58q.81,12.06,1.61,24.12c.15,2.13.33,4.38,1.56,6.14s3.87,2.69,5.55,1.37,1.51-3.52,1.05-5.4-1.22-3.83-.71-5.7c.61-2.18,2.83-3.71,3.12-5.95.35-2.76-2.39-5.24-1.93-8s3.87-4.08,4.93-6.68c1-2.32-.2-5.07.62-7.44.75-2.19,3-3.51,5.15-4.29s4.52-1.24,6.41-2.58S409.7,123.35,408.64,121.29Z" style="fill:#263238"></path><path d="M436.64,275.35c.34,1,12.87,14.27,11.48,33.4s-11.48,66.45-11.48,66.45-3.42,31.68-6.91,40.68c-1.05,2.69-6.77,19.41-13.12,34.63-2.38,5.7-4,9.57-4,9.57l-13.57-1.39,11.76-143.56-43.59,66.06s-.66,22.42-1.36,29.38-6.21,44.14-6.21,44.14l-23.34-32.46s.12-43.92,2.21-54.53,45.23-81.93,45.23-81.93Z" style="fill:#263238"></path><path d="M417.32,461.65c-.52,3.31-.69,10.82-1.84,15s-8.52,8.75-12.9,7.83-8.52-3.22-8.52-7.6,5.57-24.68,5.57-24.68l17-1.66S417.87,458.2,417.32,461.65Z" style="fill:#263238"></path><path d="M361.34,401.46l-25,19.9L336,462.58a13.47,13.47,0,0,1-3,3c-1.62,1-13.9,4.59-18.15,6.22a6.64,6.64,0,0,0-3.22,2.57,2.23,2.23,0,0,0,2,3.43L354,476.43a5.28,5.28,0,0,0,5.1-5.09l2.32-67.75Z" style="fill:#263238"></path><path d="M419.68,384.05a15.17,15.17,0,0,1-4.52,3.26c-.09-.12.86-.94,2.11-1.84A7.7,7.7,0,0,1,419.68,384.05Z" style="fill:#455a64"></path><path d="M365.3,382.21a20.67,20.67,0,0,1-3-3.45,19.49,19.49,0,0,1-2.61-3.77,41.1,41.1,0,0,1,5.64,7.22Z" style="fill:#455a64"></path><path d="M423,180.06l10.84,30.82L426,244.33s19.4,25.47,18,43.71l-33.17,27.09-42.64-28.35,8-26.49s-6-27.07-5.7-38.76,1.42-16.24,1.42-16.24l2.85-21.65,12-4.56,24.79-1.43Z" style="fill:#7E57C2"></path><path d="M466.2,249.46s2.9-4.19-1.71-14.25c-6-13.1-26.39-47.85-28.67-50.13s-14.93-5.45-14.93-5.45l9.41,33.07,16.6,32.57-13,25.84-4.16,8.27L441.41,288Z" style="fill:#7E57C2"></path><path d="M376,183.17s-15.19,6-18.06,14.88-3.69,27.63-1.35,42.73c2,12.75,3.86,20.65,3.86,20.65L370.24,313l9.82-9.64-2.15-43.79.71-55.83Z" style="fill:#7E57C2"></path><polygon points="377.91 182.43 406.5 232.86 420.89 179.63 404.09 175.59 387.96 177.97 377.91 182.43" style="fill:#455a64"></polygon><path d="M372.1,211.65a4.32,4.32,0,0,1,.15.67c.09.5.21,1.14.35,1.94.29,1.76.69,4.19,1.19,7.17l3.72,23.67c.22,1.47.45,2.92.66,4.29h0c.57,8.29,1.08,15.64,1.44,21,.16,2.6.29,4.71.38,6.23,0,.69.06,1.25.08,1.69a2.34,2.34,0,0,1,0,.58,2.3,2.3,0,0,1-.09-.58c0-.43-.1-1-.17-1.67l-.53-6.22c-.41-5.34-1-12.68-1.62-21v0c-.22-1.38-.44-2.82-.67-4.29-1.39-9.23-2.64-17.58-3.57-23.7-.42-3-.77-5.43-1-7.18-.1-.81-.19-1.46-.25-2A3.25,3.25,0,0,1,372.1,211.65Z" style="fill:#263238"></path><path d="M436.9,200.24c.13,0-1.32,5.91-3.25,13.11s-3.61,13-3.75,13,1.31-5.91,3.24-13.11S436.76,200.2,436.9,200.24Z" style="fill:#263238"></path><polygon points="445.7 247.67 429.82 231.91 404.04 259.47 401.16 256.39 362 296.76 359.03 304.98 329.84 337.49 339.63 346.58 347.5 338.89 365.32 340.64 399.93 299.38 403.6 303.31 411.12 303.31 416.19 297.29 415.31 294.84 410.94 296.94 407.43 293.44 423.7 273.87 431.55 275.75 445.7 247.67" style="fill:#e0e0e0"></polygon><path d="M418,278.89c.08.22.79,10.36.79,10.36l-3.06,4.28-3.07-10Z" style="fill:#e0e0e0"></path><g style="opacity:0.30000000000000004"><path d="M352.63,333.44c10.45-5,19.15-13.07,26.27-22.19s12.79-19.26,18.42-29.36Z"></path></g><path d="M431.55,275.75s-.07,0-.2,0l-.6-.11-2.3-.49-8.62-1.9.15,0-7.19,7.05-.06.06h-.07l-15,1.06.16-.09-12.87,14.87-26.37,30.31-8,9.14-2.21,2.47-.58.63-.21.21s.05-.09.17-.24l.54-.67c.51-.61,1.23-1.45,2.13-2.53l7.92-9.25,26.26-30.41,12.9-14.85.06-.07h.1l15.05-1-.13.06c2.72-2.62,5.17-5,7.26-7l.06-.06.08,0,8.59,2,2.28.57.59.16Z" style="fill:#263238"></path><path d="M404,259.47a2.5,2.5,0,0,1-.43.49l-1.3,1.31c-1.18,1.19-2.8,2.83-4.8,4.83-4,4.09-9.54,9.83-15.6,16.17s-11.61,12.05-15.72,16.08c-2.05,2-3.74,3.62-4.92,4.71l-1.37,1.25a3.83,3.83,0,0,1-.5.41,3.55,3.55,0,0,1,.43-.48l1.3-1.32,4.8-4.83c4-4.09,9.54-9.82,15.6-16.18s11.61-12,15.72-16.07c2.06-2,3.74-3.62,4.92-4.71l1.37-1.25A3.83,3.83,0,0,1,404,259.47Z" style="fill:#263238"></path><path d="M375.71,305.35a32.3,32.3,0,0,1-4.56-3.71,34,34,0,0,1-4.22-4.11,67.91,67.91,0,0,1,8.78,7.82Z" style="fill:#263238"></path><path d="M436,238.68a2.54,2.54,0,0,1-.37.44l-1.11,1.18-4.1,4.37c-3.45,3.69-8.15,8.86-13.31,14.6L403.9,274l-4,4.41-1.12,1.18a2.39,2.39,0,0,1-.42.39,3.16,3.16,0,0,1,.34-.46l1.05-1.24,3.92-4.53c3.33-3.81,7.95-9.06,13.11-14.8s9.9-10.87,13.42-14.51c1.76-1.82,3.21-3.26,4.23-4.25l1.18-1.12A2.71,2.71,0,0,1,436,238.68Z" style="fill:#263238"></path><path d="M443,246.39a8.49,8.49,0,0,1-1,1.17l-2.86,3.11c-2.4,2.62-5.68,6.29-9.28,10.37l-9.19,10.46-2.81,3.14a8.23,8.23,0,0,1-1.09,1.11,10.55,10.55,0,0,1,.94-1.24c.69-.84,1.59-1.94,2.68-3.25,2.29-2.74,5.49-6.48,9.08-10.56s6.92-7.72,9.4-10.28c1.24-1.29,2.26-2.31,3-3A10.33,10.33,0,0,1,443,246.39Z" style="fill:#263238"></path><path d="M377.2,325.16a74.37,74.37,0,0,1-9.57-7.9,36.7,36.7,0,0,1,4.95,3.75A37.59,37.59,0,0,1,377.2,325.16Z" style="fill:#263238"></path><path d="M380.78,323.25a81.24,81.24,0,0,1-10.23-8.13,40,40,0,0,1,5.28,3.86A41.14,41.14,0,0,1,380.78,323.25Z" style="fill:#263238"></path><polygon points="332.15 339.63 326.98 345.63 332.67 350.83 337.95 345.02 332.15 339.63" style="fill:#263238"></polygon><path d="M441.41,288,424,303.31l-11.15-3.11,1-2.41s-5.05,2-5.74,1.27a2,2,0,0,1-.69-1.27l8.62-9.08,2.41-2.3h0l-.55-5.58s10.13.15,11.82-1.45Z" style="fill:#455a64"></path><path d="M432.43,216.89a2.61,2.61,0,0,1,.33.54c.23.41.52.94.87,1.61l3.15,6c2.64,5.15,6.28,12.21,10.36,20.13l.06.12-.06.12c-.46.9-.94,1.85-1.42,2.82L434.5,270.3c-1.43,2.77-2.6,5-3.45,6.66q-.58,1.13-1,1.8a5.43,5.43,0,0,1-.36.62,2.69,2.69,0,0,1,.27-.66l.87-1.85,3.31-6.74L445.25,248l1.42-2.83v.24l-10.21-20.21c-1.25-2.52-2.26-4.58-3-6.06-.32-.68-.58-1.22-.79-1.64A3.11,3.11,0,0,1,432.43,216.89Z" style="fill:#263238"></path><path d="M457.87,243.71a39.57,39.57,0,0,0-5.93.39,40.79,40.79,0,0,0-5.68,1.76,12.44,12.44,0,0,1,5.58-2.27A12.31,12.31,0,0,1,457.87,243.71Z" style="fill:#263238"></path><g style="opacity:0.30000000000000004"><path d="M436.15,202.79c-1.32,4.37-3,9.56-3.58,14.1C435.41,213.13,437.26,207.38,436.15,202.79Z"></path></g><path d="M390.53,242a6.74,6.74,0,0,1-2.45-.12,14.4,14.4,0,0,1-9.57-6.53,6.78,6.78,0,0,1-1-2.23c.09,0,.47.81,1.32,2a15.84,15.84,0,0,0,9.33,6.36C389.6,241.83,390.53,241.87,390.53,242Z" style="fill:#263238"></path><g style="opacity:0.30000000000000004"><path d="M375.16,232.88a41.18,41.18,0,0,1,4.4,41.27,315.19,315.19,0,0,0-4.12-40.44"></path></g></g><g id="freepik--character-2--inject-277"><path d="M205.46,214.84s-7.1,18-2.33,27.94a51.13,51.13,0,0,1,4.57,20.66S193.61,284.38,195.17,312s4.61,80,4.61,80l14,16.47,16.48,2.45,4-90.46h0l14,95.75L274,406l6.4-55.72s5.49-35.63-1.29-58.14-14.5-33.72-14.5-33.72l8.28-26.81L259,194.56,223.71,194Z" style="fill:#7E57C2"></path><path d="M264.61,258.45s7.72,11.21,14.5,33.72,1.29,58.14,1.29,58.14L274,406l-26.85,8.21-12.84-93.76h0l-4,90.46-16.48-2.45-14-16.47s-3-52.39-4.61-80,12.53-48.56,12.53-48.56c-2.27.74,25.51,61.06,26.61,57C238.78,304.16,246.8,274.38,264.61,258.45Z" style="fill:#455a64"></path><path d="M199.51,387.25l31.63,16.86-1,70.6H180.86a7.23,7.23,0,0,1,4.69-6c4.36-1.51,16.93-4.7,18.6-5.7a13.82,13.82,0,0,0,3.15-2.9Z" style="fill:#263238"></path><path d="M275.84,396.49l-29.09,14,5.5,50.73c-3.95,6.7-13.22,20.59-12.74,19.95,0,0-5.85,8.56-1.95,10.75a6.24,6.24,0,0,0,2.24.28c3.92,0,8.37-2,13.21-5.83l17.11-11.67,1.38-15.9Z" style="fill:#263238"></path><path d="M198.39,318.71a9,9,0,0,1-.11-1.57c0-1-.05-2.48,0-4.29a131.43,131.43,0,0,1,3.47-28c.41-1.76.78-3.17,1.07-4.15a10,10,0,0,1,.48-1.49,8.32,8.32,0,0,1-.29,1.54c-.23,1.08-.54,2.49-.9,4.18-.75,3.53-1.65,8.44-2.33,13.91s-1,10.44-1.13,14c-.05,1.74-.1,3.17-.14,4.28A8.18,8.18,0,0,1,198.39,318.71Z" style="fill:#fff"></path><path d="M244,366.56a33.11,33.11,0,0,1-.3-3.8c-.15-2.35-.38-5.59-.77-9.15s-.86-6.79-1.23-9.11a31.29,31.29,0,0,1-.52-3.78,4.28,4.28,0,0,1,.29,1c.16.64.37,1.57.6,2.73.46,2.31,1,5.53,1.38,9.11s.57,6.84.62,9.19c0,1.18,0,2.14,0,2.8A4.37,4.37,0,0,1,244,366.56Z" style="fill:#fff"></path><path d="M223.71,195.23l-15.26,27.56-21.19,16.52,4.68,11.57-2.71,3-13,1.48s-12.3-14.05-10.62-18.74c4.29-12,36-34.69,44.11-38.88s12.56-3.94,14-3.69Z" style="fill:#7E57C2"></path><path d="M176.18,257.53l16.75,13.05s6.4,7.58,9.35,7,5.67-12.41,5.42-14.13-5.66-1.73-5.66-1.73l-12-19.93s-14.13,8.36-13.89,13.53" style="fill:#263238"></path><path d="M321,236.12c-2-5.19-35.08-28.91-43-35.33s-15.55-6.18-15.55-6.18l-3.38-.05-5.27,6,17.17,32.91L295,244.7,287.46,253,296,263.83s21.26-12.64,25-16.59S322.94,241.31,321,236.12Z" style="fill:#7E57C2"></path><g style="opacity:0.30000000000000004"><path d="M274.87,280.13a39.93,39.93,0,0,0-4.3-6.62,10.71,10.71,0,0,0-3.53-3.14,4.47,4.47,0,0,0-4.53.15l-2.68-2.63c-1.17,5.72,1.36,11.64,5,16.17a11.12,11.12,0,0,0,5.18,4c2.12.61,4.76-.13,5.69-2.13C276.59,284.06,275.8,281.92,274.87,280.13Z"></path></g><path d="M261.75,263.88s-3.72.89-3.72,3.55,1.86,6.73,1.86,6.73,6.82,6.56,8.59,6.91,5.85.35,6.56-1.24.53-3.84,0-3.69,6.55-4.81,6.55-4.81l23.74-11s-9-18-12.22-15.41c-.89.71-20.91,17.24-20.91,17.24Z" style="fill:#263238"></path><path d="M203.46,243.76a10.61,10.61,0,0,1-.58-1.44,12.41,12.41,0,0,1-.54-1.73,20.55,20.55,0,0,1-.55-2.35,24.71,24.71,0,0,1-.42-2.89,32.06,32.06,0,0,1-.17-3.35,34.44,34.44,0,0,1,3.41-14.89,32.08,32.08,0,0,1,1.61-2.94,25.59,25.59,0,0,1,1.63-2.43,22.1,22.1,0,0,1,1.52-1.87,15.52,15.52,0,0,1,1.24-1.33,9.71,9.71,0,0,1,1.15-1c.08.09-1.56,1.58-3.61,4.46a25,25,0,0,0-1.56,2.43,33,33,0,0,0-1.55,2.92,39.89,39.89,0,0,0-2.46,7.17,39,39,0,0,0-.9,7.52c0,1.17,0,2.28.12,3.31a27.84,27.84,0,0,0,.35,2.87C202.75,241.67,203.58,243.72,203.46,243.76Z" style="fill:#263238"></path><path d="M250.16,250.55a5.31,5.31,0,0,1-1.28.14,17.83,17.83,0,0,1-3.49-.19,20.34,20.34,0,0,1-16.61-14.37,18.83,18.83,0,0,1-.7-3.43,5,5,0,0,1,0-1.28,41.14,41.14,0,0,0,1.09,4.6,20.87,20.87,0,0,0,16.32,14.12A42.16,42.16,0,0,0,250.16,250.55Z" style="fill:#263238"></path><path d="M280.73,217.35A32.33,32.33,0,0,1,279,220.5c-1.12,1.93-2.6,4.64-4,7.73s-2.57,6-3.33,8.07a32.2,32.2,0,0,1-1.27,3.39,3.24,3.24,0,0,1,.18-1c.15-.61.4-1.48.74-2.55a70,70,0,0,1,3.2-8.17,71.36,71.36,0,0,1,4.2-7.7c.61-.95,1.11-1.7,1.49-2.21A4.23,4.23,0,0,1,280.73,217.35Z" style="fill:#263238"></path><path d="M232.51,319a3.19,3.19,0,0,1-.34-.51c-.22-.4-.51-.9-.86-1.52-.74-1.31-1.78-3.23-3-5.62-2.52-4.78-5.9-11.43-9.37-18.91S212.54,278,210.61,273c-1-2.52-1.7-4.58-2.19-6-.22-.67-.41-1.22-.55-1.65a2.14,2.14,0,0,1-.15-.59,4.36,4.36,0,0,1,.25.55l.64,1.62c.54,1.41,1.33,3.45,2.35,5.95,2,5,4.94,11.85,8.41,19.32s6.79,14.14,9.23,19l2.89,5.7c.32.63.57,1.15.78,1.56A3.45,3.45,0,0,1,232.51,319Z" style="fill:#263238"></path><g style="opacity:0.30000000000000004"><path d="M235.8,224.23c-5.35-3.95-13.64-2.19-17.8,3s-4.45,12.8-1.75,18.88c2.14,4.83,6.36,9,11.58,9.83a14,14,0,0,0,12.79-5.53c3-3.86,3.27-9,3.37-13.84.17-8-6.13-11.6-9.24-13"></path></g><path d="M203.83,237.67a3.33,3.33,0,0,1-.17-1,23.06,23.06,0,0,1-.15-2.75,33.81,33.81,0,0,1,1.21-9,33.27,33.27,0,0,1,3.55-8.33,23.42,23.42,0,0,1,1.53-2.29,3.65,3.65,0,0,1,.65-.76c.08,0-.75,1.22-1.86,3.23a38,38,0,0,0-4.71,17.13C203.8,236.24,203.92,237.66,203.83,237.67Z" style="fill:#fff"></path><path d="M211.76,198.89a2.73,2.73,0,0,1-.43.23l-1.25.56-1.91,1c-.73.44-1.56.94-2.45,1.52a166.43,166.43,0,0,0-13.27,10.13c-5,4.15-9.57,8-12.93,10.62-1.68,1.33-3.05,2.39-4,3.09l-1.13.8a2.27,2.27,0,0,1-.41.26s.11-.13.35-.34l1.06-.88c.94-.74,2.27-1.85,3.92-3.21,3.29-2.73,7.78-6.59,12.83-10.74a136.36,136.36,0,0,1,13.4-10c.91-.56,1.76-1,2.5-1.46s1.43-.71,2-1l1.3-.48A1.6,1.6,0,0,1,211.76,198.89Z" style="fill:#fff"></path><path d="M223.06,294.94a17,17,0,0,1-1.58-2.83c-.89-1.79-2-4.31-3.12-7.16s-1.92-5.48-2.45-7.41a17.58,17.58,0,0,1-.71-3.16,22.41,22.41,0,0,1,1.07,3.05c.61,1.9,1.5,4.5,2.58,7.34s2.16,5.36,3,7.18A23.38,23.38,0,0,1,223.06,294.94Z" style="fill:#fff"></path><path d="M295,240.82a10.72,10.72,0,0,1-2.55-.86,35,35,0,0,1-5.7-3.11,33.28,33.28,0,0,1-5-4.12,11.05,11.05,0,0,1-1.76-2,19.38,19.38,0,0,1,2,1.77,47.44,47.44,0,0,0,5.05,4,46.89,46.89,0,0,0,5.57,3.2A17.85,17.85,0,0,1,295,240.82Z" style="fill:#fff"></path><g style="opacity:0.30000000000000004"><path d="M279.45,219.89a142,142,0,0,0-7.56,14.79,33.92,33.92,0,0,0,7.84-15.11Z"></path></g><path d="M178.19,233.67a3.6,3.6,0,0,1,1.62,0A10.36,10.36,0,0,1,183.5,235a10.55,10.55,0,0,1,3,2.52,3.59,3.59,0,0,1,.83,1.39,14.41,14.41,0,0,0-9.12-5.2Z" style="fill:#263238"></path><path d="M270.15,157.82c-2.46-8.2-8.57-15.22-15.69-20s-26.24-7.18-30.84,2.59l18.44,42.68a18.18,18.18,0,0,0,19.42-4.93c-.38,1.13-.76,2.26-1.15,3.39,2.55-2.07,4.39-3.11,5.77-6.09.32,1.41.86,1.2,1.18,2.61a14.4,14.4,0,0,0,4.35-9.62A29.08,29.08,0,0,0,270.15,157.82Z" style="fill:#263238"></path><path d="M230.66,140.5l14.82,2c2,.27,8.29,8.19,8.2,10.16L250.75,194a13.68,13.68,0,0,1-3.42,8.09l-2.1,2.37a10,10,0,0,1-16.64-2.38,4.73,4.73,0,0,1-.39-1.18c0-.4-.13-.66-.13-1a31.65,31.65,0,0,1,.1-6.68c.07-3.92.11-5.53.11-5.49s-8.24-1.61-9.64-12.45c-.7-5.4-.18-14.19.47-21.37C219.71,147.45,224.22,139.63,230.66,140.5Z" style="fill:#ffbe9d"></path><path d="M222.73,162.32a1.39,1.39,0,0,0,1.3,1.44,1.33,1.33,0,0,0,1.46-1.21,1.39,1.39,0,0,0-1.29-1.44A1.33,1.33,0,0,0,222.73,162.32Z" style="fill:#263238"></path><path d="M220.89,158.55c.17.19,1.24-.56,2.73-.51s2.56.82,2.73.64-.09-.41-.55-.77a3.78,3.78,0,0,0-2.18-.74,3.65,3.65,0,0,0-2.18.64C221,158.15,220.81,158.47,220.89,158.55Z" style="fill:#263238"></path><path d="M236.38,162.53a1.37,1.37,0,0,0,1.29,1.43,1.32,1.32,0,0,0,1.46-1.21,1.37,1.37,0,0,0-1.29-1.43A1.32,1.32,0,0,0,236.38,162.53Z" style="fill:#263238"></path><path d="M235,159.14c.16.18,1.24-.56,2.73-.52s2.56.83,2.72.65-.08-.41-.55-.77a3.77,3.77,0,0,0-2.17-.74,3.65,3.65,0,0,0-2.18.64C235.11,158.73,235,159.06,235,159.14Z" style="fill:#263238"></path><path d="M229.81,170.14a10.26,10.26,0,0,0-2.41-.51c-.38,0-.74-.13-.79-.39a2,2,0,0,1,.28-1.12c.39-.91.79-1.87,1.21-2.87,1.68-4.08,2.91-7.44,2.74-7.5s-1.66,3.18-3.34,7.26c-.4,1-.79,2-1.16,2.89a2.2,2.2,0,0,0-.24,1.48,1,1,0,0,0,.61.58,2.85,2.85,0,0,0,.65.11A10.11,10.11,0,0,0,229.81,170.14Z" style="fill:#263238"></path><path d="M228.28,187.74a27.48,27.48,0,0,0,14.56-3.45s-3.84,7.37-14.62,6.06Z" style="fill:#eb996e"></path><path d="M230.34,173.75a2.65,2.65,0,0,1,2.43-.93,2.46,2.46,0,0,1,1.67,1,1.54,1.54,0,0,1,.07,1.77,1.8,1.8,0,0,1-2,.44,5.52,5.52,0,0,1-1.87-1.19,1.63,1.63,0,0,1-.42-.45.51.51,0,0,1,0-.56" style="fill:#eb996e"></path><path d="M234.16,171.29c-.24,0-.29,1.6-1.7,2.71s-3.14.88-3.16,1.11.38.32,1.11.36a4,4,0,0,0,2.62-.83,3.47,3.47,0,0,0,1.33-2.27C234.44,171.69,234.27,171.29,234.16,171.29Z" style="fill:#263238"></path><path d="M235,154.7c.13.41,1.63.26,3.37.52s3.14.78,3.38.42c.11-.17-.13-.56-.68-1a5.74,5.74,0,0,0-2.49-.95,5.62,5.62,0,0,0-2.66.23C235.24,154.2,234.91,154.5,235,154.7Z" style="fill:#263238"></path><path d="M221.2,154.14c.25.34,1.29,0,2.53,0s2.27.29,2.52-.05c.11-.17-.05-.52-.49-.85a3.67,3.67,0,0,0-4.07,0C221.24,153.63,221.09,154,221.2,154.14Z" style="fill:#263238"></path><path d="M250.38,168.11c0-.81,1-2.67,1.8-2.78,2.13-.27,5.95,0,5.83,5.4-.16,7.36-7.52,5.68-7.53,5.47S250.29,170.88,250.38,168.11Z" style="fill:#ffbe9d"></path><path d="M252.79,173.46s.13.09.34.19a1.26,1.26,0,0,0,1,0,3.18,3.18,0,0,0,1.53-2.82,4.2,4.2,0,0,0-.32-1.84,1.47,1.47,0,0,0-.94-1,.66.66,0,0,0-.77.34c-.1.2-.05.35-.09.36s-.16-.13-.09-.43a.78.78,0,0,1,.3-.46,1,1,0,0,1,.71-.17,1.78,1.78,0,0,1,1.31,1.17,4.34,4.34,0,0,1,.4,2.07c-.08,1.48-.87,2.85-1.94,3.13a1.32,1.32,0,0,1-1.16-.22C252.8,173.64,252.77,173.47,252.79,173.46Z" style="fill:#eb996e"></path><path d="M252.78,166.07S253,143.32,232,143.43c.17-.13-13.26-1-13.6,20.51,0,0-4.08-26.44,14.6-26.94a21.21,21.21,0,0,1,16.5,6.88,26.82,26.82,0,0,1,7.13,19.75l-.12,2.71Z" style="fill:#7E57C2"></path><path d="M229.71,142.8a13.05,13.05,0,0,0-3.41.55h0a12,12,0,0,0-4.71,2.66,9.13,9.13,0,0,0-3,7,20.15,20.15,0,0,1,5.86-1.82,2.8,2.8,0,0,1,1-2.56,5.65,5.65,0,0,0,1.85,4.79,8.4,8.4,0,0,1,1.65-4.55,3,3,0,0,0,1.72,3.33,8.59,8.59,0,0,0,4,.59l14.55-.13C245,146.28,240.29,142.16,229.71,142.8Z" style="fill:#263238"></path><path d="M252,159.38c-1.08-4.67-4.68-10.21-7.39-12.27v3.56a40.82,40.82,0,0,1,1.48,33.49c-.25.61-.37,1.53.26,1.7a1.14,1.14,0,0,0,.93-.34c3.64-2.93,5.57-7.59,6.05-12.24A42.45,42.45,0,0,0,252,159.38Z" style="fill:#263238"></path><path d="M222.73,147.24l-2.93.84c-3.83,7.11-6.47,16.49-5.85,24.53a23.87,23.87,0,0,0,2,8.47,13,13,0,0,0,5.89,6.25,62,62,0,0,1-3.11-11.61C217.37,164.88,218.08,156.09,222.73,147.24Z" style="fill:#263238"></path><path d="M268.23,157.65a9.56,9.56,0,0,1,.13,2.14,29.75,29.75,0,0,1-.59,5.6l-.12.59-.3-.52L264,159.71h.45l-.19.37a27.05,27.05,0,0,0-2.49,7.53l-.13.76-.29-.71c-.76-1.91-1.38-3.49-1.8-4.61a8.63,8.63,0,0,1-.6-1.77,10.26,10.26,0,0,1,.83,1.68c.49,1.08,1.17,2.64,2,4.53l-.42.05a25.51,25.51,0,0,1,2.46-7.7l.19-.38.22-.42.24.41,3.32,5.79-.42.07a35,35,0,0,0,.77-5.52A17.2,17.2,0,0,1,268.23,157.65Z" style="fill:#455a64"></path><path d="M265.17,147.7a3.79,3.79,0,0,1-1.26-.08,13.46,13.46,0,0,1-3.29-1l.27-.24c.59,1.75,1.31,3.84,2.09,6.14l.21.61-.58-.31A13.19,13.19,0,0,1,260,151a12.92,12.92,0,0,1-2.24-2.66l.46-.16c.17,2,.33,3.92.47,5.53l0,.51-.38-.34a13.8,13.8,0,0,1-2.53-3,4.73,4.73,0,0,1-.66-1.28,21,21,0,0,0,3.46,3.94l-.33.17c-.17-1.61-.36-3.48-.57-5.53l-.11-1,.57.88a13.17,13.17,0,0,0,4.66,4.35l-.37.31c-.73-2.31-1.4-4.41-2-6.18l-.13-.42.4.19A20.11,20.11,0,0,0,265.17,147.7Z" style="fill:#455a64"></path><path d="M243.51,151a21.82,21.82,0,0,1-2.92-1.63l-1.45-.87-.8-.5c-.14-.09-.23-.12-.26-.1a.33.33,0,0,0-.13.22c-.07.22.13.56,0,1a.81.81,0,0,1-.49.56,1.06,1.06,0,0,1-.7.05,3,3,0,0,1-1.06-.63c-.31-.25-.6-.52-.89-.8a10.37,10.37,0,0,1-1.29-1.63l.47-.11c-.14,1.44-.27,2.8-.39,4l0,.44-.32-.29a10,10,0,0,1-2.34-3.15,4.22,4.22,0,0,1-.46-1.4,14.32,14.32,0,0,1,.69,1.29,11.06,11.06,0,0,0,2.4,2.93l-.36.14c.1-1.23.2-2.59.32-4l.06-.74.41.63a10.31,10.31,0,0,0,1.23,1.53,10.07,10.07,0,0,0,.84.77,2.88,2.88,0,0,0,.86.54c.27.07.55,0,.59-.24s-.12-.57,0-1a.75.75,0,0,1,.45-.56.76.76,0,0,1,.66.16l.78.51,1.41.93A20.3,20.3,0,0,1,243.51,151Z" style="fill:#455a64"></path></g><g id="freepik--character-1--inject-277"><path d="M72,167.35,59.71,197.54l18.9-11.9-5.19,30.77S53.75,225.12,46,223.59s-11.74-7.48-10.21-16.13,19.5-46.92,19.5-46.92Z" style="fill:#455a64"></path><path d="M82.38,128.3c-.6-.25-7.95,7.82-7.95,7.82l-4.28.14-1.67,1.67-3.37,1.38-4.55,7.25L56.32,161l13.49,5.5,9.36-7.06,3-1.4,5.24-.82s.19-2.67-2.05-3.24a11.13,11.13,0,0,0-7.63.25l-2.1.24,2.62-9.75,7.64-10.39s-.55-3.63-2.72-2.7C83.19,131.61,83.81,128.91,82.38,128.3Z" style="fill:#dd8880"></path><path d="M69.58,137.79s.21-.23.7-.16a2,2,0,0,1,1.43,1.29c.33.75.66,1.62,1,2.6a12.57,12.57,0,0,1,.56,1.58,2,2,0,0,1,0,1,1.56,1.56,0,0,1-.58.87,3.66,3.66,0,0,1-1,.51,3,3,0,0,1-1.09.19,1.67,1.67,0,0,1-1.05-.4,2.31,2.31,0,0,1-.6-.82,6.52,6.52,0,0,1-.42-1.66,4,4,0,0,0-.37-1.24l.2.06a6.45,6.45,0,0,1-1.68.54,7.53,7.53,0,0,1,1.56-.82l.12-.06.07.12a4.12,4.12,0,0,1,.49,1.32,6.9,6.9,0,0,0,.45,1.54,1.46,1.46,0,0,0,1.25.92,3.55,3.55,0,0,0,1.78-.61,1.2,1.2,0,0,0,.39-1.33,13.56,13.56,0,0,0-.51-1.52c-.33-.94-.64-1.82-.93-2.62a1.82,1.82,0,0,0-1.14-1.24A2,2,0,0,0,69.58,137.79Z" style="fill:#b26763"></path><path d="M73.93,136.32s.25,0,.68.08a4.33,4.33,0,0,1,1.6,1A10.37,10.37,0,0,1,78,139.44a3.37,3.37,0,0,1,.29,3.4,2.2,2.2,0,0,1-1.79,1.08,1.74,1.74,0,0,1-1-.26,2.26,2.26,0,0,1-.65-.7,10.38,10.38,0,0,1-1.1-2.69l.19.12a3.23,3.23,0,0,1-2-.23,11.43,11.43,0,0,0,2-.1l.14,0,0,.14a11.69,11.69,0,0,0,1.17,2.52,1.38,1.38,0,0,0,1.24.72,1.69,1.69,0,0,0,1.35-.84,2.92,2.92,0,0,0-.24-2.9,11.63,11.63,0,0,0-1.67-2A5.55,5.55,0,0,0,73.93,136.32Z" style="fill:#b26763"></path><path d="M78.61,138.17a14.45,14.45,0,0,1,2-3.36A14.67,14.67,0,0,1,83,131.75a14.79,14.79,0,0,1-2,3.35A15.13,15.13,0,0,1,78.61,138.17Z" style="fill:#b26763"></path><path d="M79.17,159.42a3.73,3.73,0,0,1,.76-.44l2.2-1.1h0l5.23-.9-.19.24a6.63,6.63,0,0,0-.38-1.84,1.39,1.39,0,0,0-.53-.7,4.66,4.66,0,0,0-.89-.46,8.55,8.55,0,0,0-4.35-.43c-1.61.24-3.16.61-4.59,1l-.07,0-.07,0a8.26,8.26,0,0,0-8.13,1.87,12.19,12.19,0,0,0-2.06,2.81,3.07,3.07,0,0,1,.32-.89A8.05,8.05,0,0,1,68,156.38a8.29,8.29,0,0,1,3.43-2.09,8.64,8.64,0,0,1,5.07,0h-.14a44.09,44.09,0,0,1,4.65-1,8.88,8.88,0,0,1,4.6.47,5.64,5.64,0,0,1,1,.53,2,2,0,0,1,.69.92,7.34,7.34,0,0,1,.38,2v.21l-.2,0-5.25.75h0l-2.26,1A3.06,3.06,0,0,1,79.17,159.42Z" style="fill:#b26763"></path><path d="M64.33,241.43a8.76,8.76,0,0,1-.09-1.4c0-.91,0-2.22,0-3.84,0-3.24.12-7.72.42-12.65s.72-9.4,1.14-12.62c.2-1.6.39-2.9.55-3.79a6.7,6.7,0,0,1,.3-1.38,7.68,7.68,0,0,1-.1,1.4c-.1,1-.23,2.28-.39,3.81-.32,3.22-.69,7.68-1,12.61s-.46,9.39-.57,12.63c-.06,1.54-.1,2.82-.14,3.83A6.32,6.32,0,0,1,64.33,241.43Z" style="fill:#263238"></path><path d="M92,173.45l.53-11.81s-10.79-2.11-10.5-13c.14-5.25,1.31-16,2.49-25.76a20.23,20.23,0,0,1,20.89-17.8l1,0c11.27,1.1,16.62,11.29,15.21,22.52L119,170.35l-16.5,10.47Z" style="fill:#dd8880"></path><path d="M92.47,161.62a26.34,26.34,0,0,0,14.38-3.6s-3.65,7.68-14.44,6.28Z" style="fill:#b26763"></path><path d="M88.35,132.89a1.55,1.55,0,0,0,1.43,1.62,1.48,1.48,0,0,0,1.65-1.33A1.55,1.55,0,0,0,90,131.55,1.48,1.48,0,0,0,88.35,132.89Z" style="fill:#263238"></path><path d="M85.81,128.39c.18.21,1.39-.61,3.06-.54s2.85,1,3,.75-.09-.46-.6-.86a4.26,4.26,0,0,0-2.43-.86,4.08,4.08,0,0,0-2.45.69C85.9,127.94,85.72,128.3,85.81,128.39Z" style="fill:#263238"></path><path d="M104.13,132.89a1.55,1.55,0,0,0,1.44,1.62,1.48,1.48,0,0,0,1.65-1.33,1.56,1.56,0,0,0-1.43-1.63A1.49,1.49,0,0,0,104.13,132.89Z" style="fill:#263238"></path><path d="M102.62,128.17c.19.21,1.4-.61,3.06-.54s2.86,1,3,.75-.09-.46-.61-.87a4.26,4.26,0,0,0-2.43-.85,4,4,0,0,0-2.44.68C102.72,127.72,102.53,128.07,102.62,128.17Z" style="fill:#263238"></path><path d="M96.51,141.4a10.6,10.6,0,0,0-2.69-.6c-.42-.06-.82-.16-.88-.45a2.2,2.2,0,0,1,.33-1.25c.44-1,.91-2.08,1.39-3.2,1.93-4.54,3.35-8.29,3.16-8.37s-1.9,3.55-3.83,8.1c-.46,1.12-.91,2.19-1.33,3.22a2.46,2.46,0,0,0-.29,1.66,1.09,1.09,0,0,0,.68.65,3.06,3.06,0,0,0,.72.13A11.5,11.5,0,0,0,96.51,141.4Z" style="fill:#263238"></path><path d="M101.38,142.75c-.28,0-.35,1.78-1.95,3s-3.52.95-3.54,1.2.41.37,1.23.43a4.5,4.5,0,0,0,2.95-.9,4,4,0,0,0,1.52-2.53C101.68,143.2,101.5,142.74,101.38,142.75Z" style="fill:#263238"></path><path d="M102.88,122.72c.14.46,1.82.31,3.77.62s3.5.91,3.78.51c.12-.19-.13-.63-.76-1.09a6.36,6.36,0,0,0-2.77-1.1,6.45,6.45,0,0,0-3,.23C103.19,122.16,102.82,122.5,102.88,122.72Z" style="fill:#263238"></path><path d="M87.47,123.51c.28.39,1.45,0,2.83.08s2.54.35,2.82,0c.13-.19,0-.58-.54-1a4.07,4.07,0,0,0-4.55,0C87.53,122.94,87.35,123.32,87.47,123.51Z" style="fill:#263238"></path><path d="M85.79,118s3.13-6.68,6.47-8.14c4-1.76,5.58,2.66,9.4,1.75s7.68-2.6,11.43.48c4.1,3.36,2,5.53,2.1,10.35.3,19.57,3.64,25.23,5,16.07.15-1,3-1.69,3.56-5.93.75-5.5,1.23-12.19.15-16.16-.91-3.34-2.7-5.69-6-8.34-5.17-4.18-12.48-4.55-17.47-4.25S85.67,109.45,85.79,118Z" style="fill:#263238"></path><path d="M119.53,138.16a2.94,2.94,0,0,1,3.29-2.71c2,.27,4.23,1.51,3.93,5.69-.53,7.41-7.86,5.35-7.86,5.13S119.28,141.26,119.53,138.16Z" style="fill:#dd8880"></path><path d="M120.7,143.6s.12.1.34.22a1.28,1.28,0,0,0,1,.08,3.19,3.19,0,0,0,1.68-2.76,4.23,4.23,0,0,0-.23-1.87,1.5,1.5,0,0,0-.9-1.06.67.67,0,0,0-.79.3c-.11.2-.07.35-.11.36s-.15-.14-.07-.44a.84.84,0,0,1,.32-.44,1,1,0,0,1,.73-.14,1.81,1.81,0,0,1,1.27,1.25,4.45,4.45,0,0,1,.3,2.09c-.16,1.49-1,2.84-2.11,3.07a1.38,1.38,0,0,1-1.17-.28C120.7,143.78,120.68,143.61,120.7,143.6Z" style="fill:#b26763"></path><path d="M96,117s0,0-.06,0H96Z" style="fill:#7E57C2"></path><path d="M85.06,117.55l39.16-.21c1.19-.14,1.49,7.87,0,8,0,0-21.46-1.06-21.77-.92l-7.06,3.12-7.34-2.3-4.19,0Z" style="fill:#455a64"></path><polyline points="85.78 120.56 88.86 120.56 96 123.73 102.87 120.63 122.83 121.59" style="fill:#455a64"></polyline><path d="M122.83,121.59a9.88,9.88,0,0,1-1.51,0l-4.12-.12c-3.47-.12-8.27-.32-13.56-.58l-.78,0,.12,0L96.09,124,96,124l-.1,0-7.1-3.26.06,0-2.27-.07a2.74,2.74,0,0,1-.81-.08,3.7,3.7,0,0,1,.81-.07l2.27-.07h0l0,0,7.17,3.08H95.9l6.86-3.13.06,0h.06l.78,0c5.3.26,10.09.52,13.56.73l4.11.28A7.74,7.74,0,0,1,122.83,121.59Z" style="fill:#fff"></path><path d="M64.51,265.87s-1.66,66.28,3.65,87.95c.28,1.13,15.41,40.3,17.93,50,2.15,8.23,13.2,62,13.2,62l21.29,4.25s1.12-57.08-1.34-66.36-3.16-58.93-3.16-58.93L116.9,308l4.78-14.69-3.4-29.16Z" style="fill:#263238"></path><rect x="68.16" y="305.72" width="27.52" height="9.22" style="fill:#7E57C2"></rect><rect x="69.27" y="320.43" width="25.3" height="20" style="fill:#455a64"></rect><path d="M94.6,327.37c0,.14-5.68.26-12.68.26s-12.68-.12-12.68-.26,5.68-.26,12.68-.26S94.6,327.22,94.6,327.37Z" style="fill:#263238"></path><path d="M87.88,419.49l33,.55V475H67.24a7.88,7.88,0,0,1,5.11-6.57c4.74-1.65,18.44-5.11,20.26-6.21A15,15,0,0,0,96,459.05Z" style="fill:#455a64"></path><path d="M107,451.17c-.14.06-1.3-2.45-3-5.4s-3.27-5.21-3.14-5.3a22.15,22.15,0,0,1,3.59,5A22,22,0,0,1,107,451.17Z" style="fill:#263238"></path><path d="M110.58,450.86c-.13.06-2.21-4.05-4.65-9.18a102.29,102.29,0,0,1-4.18-9.41c.13-.06,2.21,4.05,4.65,9.18A102.29,102.29,0,0,1,110.58,450.86Z" style="fill:#263238"></path><path d="M60.58,206.77h0a3.4,3.4,0,0,1-.14-4.37c5.91-7.53,25.45-31.59,37.76-36.51,14.64-5.86,25.94-1,31.31,8.79s3.09,23.42.41,26.34a7.24,7.24,0,0,1-6.59,2l-2.68-22-11.47-6.83L88.69,182,65.62,206.82A3.41,3.41,0,0,1,60.58,206.77Z" style="fill:#263238"></path><path d="M94.16,174.46,66.62,205.75c-3,6.82-2.9,70.52-2.9,70.52l55.17-2.46-2.36-37.47c-.79-.07,8.34-34.11,8.34-34.11s5.06-13.9,1.52-21.74a14.94,14.94,0,0,0-2.79-4,20.31,20.31,0,0,0-21.91-4.83Z" style="fill:#455a64"></path><path d="M122.35,186s0,.06,0,.19,0,.3,0,.54a12.94,12.94,0,0,1-.47,2.08,46.1,46.1,0,0,1-3.16,7.36h0v0c-1.41,1.69-3,3.62-4.87,5.73s-3.8,4.42-6.17,6.71a8.3,8.3,0,0,1-4.69,2,15.74,15.74,0,0,1-5.36-.42,17.7,17.7,0,0,1-2.67-.8,20.13,20.13,0,0,1-2.53-1.3,39.68,39.68,0,0,1-4.69-3.38c-.87-.73-1.72-1.48-2.53-2.25-.4-.38-.8-.77-1.18-1.17A8.44,8.44,0,0,1,82.86,200l-.08-.12.12-.15,11-12.61,0,0,8.68-13.41,0,0,0,0a15.21,15.21,0,0,1,6.7-2.56,10.4,10.4,0,0,1,2.56,0c0,.05-.9,0-2.54.2a15.33,15.33,0,0,0-6.53,2.64l0,0-8.56,13.49h0l-11,12.65v-.24c.34.29.68.77,1.07,1.14s.77.77,1.17,1.15c.8.77,1.64,1.5,2.5,2.23a39.52,39.52,0,0,0,4.63,3.34A20.34,20.34,0,0,0,95.1,209a18,18,0,0,0,2.59.78,15.63,15.63,0,0,0,5.19.43,7.76,7.76,0,0,0,4.43-1.87c2.34-2.23,4.33-4.56,6.19-6.63l4.92-5.67,0,0a48.88,48.88,0,0,0,3.28-7.25,16.81,16.81,0,0,0,.55-2A4.87,4.87,0,0,1,122.35,186Z" style="fill:#263238"></path><g style="opacity:0.30000000000000004"><path d="M107.17,194.62a10.2,10.2,0,0,0-3.69,1.5,19.8,19.8,0,0,1-11.28,2.15c-1.35-.14-2.7-.43-4.06-.44A5.74,5.74,0,0,0,84.32,199l-.11.53c2.65,2.67,5.41,5.42,8.89,6.88s7.9,1.36,10.6-1.28c1.53-1.48,2.35-3.57,3.9-5,1.09-1,2.66-2,2.54-3.47S108.5,194.5,107.17,194.62Z"></path></g><path d="M71,193.37s-2.31,1.5-2.45,3.4,3.94,3.53,6.25,3.53,2.58-1.49,5.16-1.49a17.86,17.86,0,0,1,4.76.68S94.91,204,97.9,203.56s8.42-6.52,8.42-6.52,3.26-.13,4.08-1.49a60.5,60.5,0,0,0,2.44-5.57s-1.49-3.26-1.9-3.26-5.7-.72-5.7-.72,1.35-4.85,1.49-5.26-2-2.31-2-2.31a8.14,8.14,0,0,0-3.8,2.45c-1.9,2-3,.42-1.77-1.45s5.44-10.25,5-12.08a3.42,3.42,0,0,0-3.54-2.37c-.77.28-3.7,8.43-5,10.33A40.9,40.9,0,0,0,93,180.36s.16-11.32-.93-13-5.56-2-5.7,2.39.11,14.63-.21,15-2.37,4.68-3.73,6.05S71,193.37,71,193.37Z" style="fill:#dd8880"></path><path d="M104.73,186.73s0,.17-.11.4a2,2,0,0,1-.91.63,2.67,2.67,0,0,1-1.65.12,2.29,2.29,0,0,1-1.36-1.51,2.63,2.63,0,0,1-.13-1.07c0-.33.1-.63.16-.92.13-.58.27-1.08.4-1.5a4.41,4.41,0,0,1,.53-1.33c.08,0,0,.56-.17,1.42-.1.5-.19,1-.29,1.5a8.28,8.28,0,0,0-.12.87,2.15,2.15,0,0,0,.11.86,1.93,1.93,0,0,0,1,1.23,2.58,2.58,0,0,0,1.38,0,2.26,2.26,0,0,0,.87-.42C104.64,186.85,104.68,186.72,104.73,186.73Z" style="fill:#b26763"></path><path d="M109.26,195.41s0,.16-.26.32a1.62,1.62,0,0,1-1.11.29,2.05,2.05,0,0,1-1.5-.82,3,3,0,0,1-.56-2,6.81,6.81,0,0,1,1.45-3.29c.51-.75.86-1.19.92-1.16s-.17.54-.6,1.34a8,8,0,0,0-1.25,3.14,2.66,2.66,0,0,0,.43,1.68,1.77,1.77,0,0,0,1.15.74A2.39,2.39,0,0,0,109.26,195.41Z" style="fill:#b26763"></path><path d="M98.84,198a17.94,17.94,0,0,1-1-2.45,12.38,12.38,0,0,0-3.29-5.19,7.58,7.58,0,0,0-5.76-1.61c-1.59.18-2.5.64-2.54.55s.2-.17.62-.36a7.32,7.32,0,0,1,1.87-.55,8.16,8.16,0,0,1,2.91,0A7.19,7.19,0,0,1,94.92,190a11.53,11.53,0,0,1,3.31,5.47A10.84,10.84,0,0,1,98.84,198Z" style="fill:#b26763"></path><g style="opacity:0.30000000000000004"><path d="M118.8,195.38l-7.43,8.87a19.24,19.24,0,0,1-4.81,4.55c-3.29,1.92-7.48,1.71-11,.36s-6.63-3.71-9.64-6l.28.45c2.6,3.67,6.15,6.56,9.64,9.4,1.52,1.24,3.16,2.52,5.11,2.68a8.18,8.18,0,0,0,5.2-1.89c4-2.87,7.13-6.89,9.92-11C117.55,200.55,119.06,198.05,118.8,195.38Z"></path></g><path d="M82.19,143.76a43.42,43.42,0,0,1,.46-6.58,42.64,42.64,0,0,1,1-6.53,41.91,41.91,0,0,1-.46,6.58A41.47,41.47,0,0,1,82.19,143.76Z" style="fill:#b26763"></path><rect x="61.18" y="268.33" width="59.61" height="10.95" style="fill:#7E57C2"></rect><rect x="84.28" y="272.21" width="14.13" height="22.54" style="fill:#7E57C2"></rect><path d="M98.41,294.75a2.86,2.86,0,0,1,0-.45q0-.49,0-1.26c0-1.14,0-2.71-.06-4.67,0-4-.07-9.61-.12-16.16l.24.24-14.13,0c-.06.06.49-.49.26-.25h0v3.15c0,1.05,0,2.08,0,3.09,0,2,0,4,0,5.92,0,3.79,0,7.29,0,10.36l-.2-.2,10.24.11,2.86,0c.66,0,1,0,1,0a6.7,6.7,0,0,1-1,.05l-2.81.05L84.28,295h-.21v-.21c0-3.07,0-6.57,0-10.36,0-1.91,0-3.88,0-5.92v-6.24h0c-.24.23.31-.33.26-.27l14.13,0h.24v.24c-.05,6.62-.09,12.26-.12,16.32,0,1.93,0,3.49-.06,4.61,0,.5,0,.9,0,1.22A1.7,1.7,0,0,1,98.41,294.75Z" style="fill:#263238"></path><rect x="58.63" y="272.21" width="14.13" height="22.54" style="fill:#7E57C2"></rect><path d="M72.76,294.75a2.86,2.86,0,0,1,0-.45q0-.49,0-1.26c0-1.14,0-2.71-.06-4.67,0-4-.07-9.61-.12-16.16l.24.24-14.13,0c-.06.06.49-.49.26-.25h0v3.15c0,1.05,0,2.08,0,3.09,0,2,0,4,0,5.92,0,3.79,0,7.29,0,10.36l-.2-.2,10.24.11,2.86,0c.66,0,1,0,1,0a6.7,6.7,0,0,1-1,.05l-2.81.05L58.63,295h-.21v-.21c0-3.07,0-6.57,0-10.36,0-1.91,0-3.88,0-5.92v-6.24h0c-.24.23.31-.33.26-.27l14.13,0H73v.24c0,6.62-.09,12.26-.12,16.32,0,1.93,0,3.49-.06,4.61,0,.5,0,.9,0,1.22A1.7,1.7,0,0,1,72.76,294.75Z" style="fill:#263238"></path><path d="M72.63,282.91a47.24,47.24,0,0,1-6.95.26,47.16,47.16,0,0,1-6.94-.26,45.56,45.56,0,0,1,6.94-.26A45.64,45.64,0,0,1,72.63,282.91Z" style="fill:#263238"></path><path d="M72.34,283.61a73.87,73.87,0,0,1-6.62,5.74,74.87,74.87,0,0,1-6.95,5.34A72.18,72.18,0,0,1,65.39,289,73.35,73.35,0,0,1,72.34,283.61Z" style="fill:#263238"></path><path d="M72.14,294.79a70.67,70.67,0,0,1-6.69-5.57,74.82,74.82,0,0,1-6.34-6,71.42,71.42,0,0,1,6.69,5.56A75.8,75.8,0,0,1,72.14,294.79Z" style="fill:#263238"></path><rect x="108.79" y="272.21" width="14.13" height="22.54" style="fill:#7E57C2"></rect><path d="M122.93,294.75a2.86,2.86,0,0,1,0-.45q0-.49,0-1.26c0-1.14,0-2.71-.07-4.67,0-4-.07-9.61-.11-16.16l.24.24-14.13,0,.25-.25h0v6.24c0,2,0,4,0,5.92,0,3.79,0,7.29,0,10.36l-.21-.2,10.25.11,2.85,0c.66,0,1,0,1,0a6.79,6.79,0,0,1-1,.05l-2.8.05-10.38.11h-.2v-.21c0-3.07,0-6.57,0-10.36,0-1.91,0-3.88,0-5.92,0-1,0-2,0-3.09v-3.15h0l.27-.27,14.13,0h.24v.24c0,6.62-.09,12.26-.12,16.32,0,1.93,0,3.49-.07,4.61,0,.5,0,.9,0,1.22A2.53,2.53,0,0,1,122.93,294.75Z" style="fill:#263238"></path><path d="M122.8,282.91a47.24,47.24,0,0,1-7,.26,47,47,0,0,1-6.94-.26,45.45,45.45,0,0,1,6.94-.26A45.64,45.64,0,0,1,122.8,282.91Z" style="fill:#263238"></path><path d="M122.5,283.61a70.57,70.57,0,0,1-6.62,5.74,74,74,0,0,1-6.94,5.34,70.57,70.57,0,0,1,6.62-5.74A74,74,0,0,1,122.5,283.61Z" style="fill:#263238"></path><path d="M122.3,294.79a72.91,72.91,0,0,1-6.68-5.57,73,73,0,0,1-6.34-6,71.42,71.42,0,0,1,6.69,5.56A72.81,72.81,0,0,1,122.3,294.79Z" style="fill:#263238"></path><path d="M98.41,283.19a47.29,47.29,0,0,1-7.07.26,47.1,47.1,0,0,1-7.06-.26,48.75,48.75,0,0,1,7.06-.26A49,49,0,0,1,98.41,283.19Z" style="fill:#263238"></path><path d="M98.11,283.88a73.57,73.57,0,0,1-6.74,5.59,73,73,0,0,1-7.06,5.18,75.54,75.54,0,0,1,6.74-5.59A75.07,75.07,0,0,1,98.11,283.88Z" style="fill:#263238"></path><path d="M97.91,294.75a70.69,70.69,0,0,1-6.79-5.4,73.41,73.41,0,0,1-6.46-5.81A72.89,72.89,0,0,1,91.45,289,72.46,72.46,0,0,1,97.91,294.75Z" style="fill:#263238"></path><g style="opacity:0.30000000000000004"><polygon points="68.64 272.3 69.27 294.65 72.76 294.75 72.76 272.21 68.64 272.3"></polygon></g><g style="opacity:0.30000000000000004"><polygon points="94.37 272.3 95 294.65 98.49 294.75 98.49 272.21 94.37 272.3"></polygon></g><g style="opacity:0.30000000000000004"><polygon points="118.74 272.36 119.37 294.71 122.86 294.81 122.86 272.27 118.74 272.36"></polygon></g></g></svg>