<svg width="328" height="234" viewBox="0 0 328 234" fill="none" xmlns="http://www.w3.org/2000/svg">
<rect width="328" height="234" rx="30" fill="#F4554B"/>
<path d="M80 136C80 130.477 84.4772 126 90 126H248C253.523 126 258 130.477 258 136V192C258 197.523 253.523 202 248 202H90C84.4772 202 80 197.523 80 192V136Z" fill="white"/>
<path d="M149.312 155.797V158.188H147.413V167.492C148.281 167.422 149.124 167.34 149.945 167.234L150.109 169.391C145.749 170.164 140.851 170.234 137.195 170.258L136.866 167.82C137.628 167.82 138.449 167.809 139.304 167.797V158.188H137.406V155.797H149.312ZM153.976 153.828V161.938H157.116V164.375H153.976V175.156H150.976V153.828H153.976ZM142.187 167.75C142.96 167.727 143.745 167.703 144.531 167.656V158.188H142.187V167.75ZM163.64 154.461C166.875 154.461 169.336 156.477 169.336 159.336C169.336 162.148 166.875 164.188 163.64 164.188C160.336 164.188 157.898 162.148 157.898 159.336C157.898 156.477 160.336 154.461 163.64 154.461ZM163.64 156.898C162 156.898 160.781 157.789 160.804 159.336C160.781 160.859 162 161.773 163.64 161.773C165.257 161.773 166.453 160.859 166.453 159.336C166.453 157.789 165.257 156.898 163.64 156.898ZM175.429 153.828V164.516H172.429V153.828H175.429ZM175.429 165.406V171.195H164.086V172.578H176.015V174.922H161.156V169.016H172.453V167.703H161.109V165.406H175.429ZM191.196 157.484C191.196 160.25 192.672 162.992 196.071 164.117L194.453 166.461C192.192 165.629 190.633 164.059 189.742 162.078C188.817 164.305 187.153 166.062 184.68 166.953L183.063 164.609C186.625 163.438 188.172 160.508 188.172 157.461V155.141H191.196V157.484ZM201.18 153.852V169.602H198.203V160.789H194.196V158.375H198.203V153.852H201.18ZM201.625 172.391V174.781H186.977V167.938H190V172.391H201.625ZM212.813 155.258V157.648H207.235V159.406H212.602V161.68H207.235V163.555C209.602 163.543 211.36 163.449 213.329 163.109L213.633 165.5C211.126 165.945 209.04 166.016 205.829 166.016H204.376V155.258H212.813ZM221.954 153.852V166.859H219.118V161.445H217.266V166.695H214.477V154.227H217.266V159.055H219.118V153.852H221.954ZM221.954 167.75V175.156H218.977V170.141H207.211V167.75H221.954Z" fill="black"/>
<path d="M110.197 175H95.3632C94.1977 175 93.2441 174.1 93.2441 173V159H95.3632V173H110.197V175ZM106.488 159V157H104.369V159H102.25V161H104.369V163H106.488V161H108.607V159H106.488ZM108.607 165H102.25V167H108.607V165ZM107.018 153H99.6013C98.4358 153 97.4928 153.9 97.4928 155L97.4822 169C97.4822 170.1 98.4252 171 99.5907 171H111.256C112.422 171 113.375 170.1 113.375 169V159L107.018 153ZM111.256 169H99.6013V155H106.139L111.256 159.83V169Z" fill="#1C1D1E"/>
<path d="M123 64.5H116.625V57H109.375V64.5H103L113 74.5L123 64.5ZM130.5 49.5H95.475C92.7 49.5 90.5 51.75 90.5 54.5V89.5C90.5 92.25 92.7 94.5 95.475 94.5H130.5C133.25 94.5 135.5 92.25 135.5 89.5V54.5C135.5 51.75 133.25 49.5 130.5 49.5ZM130.5 89.5H95.5V82H104.4C106.125 84.975 109.325 87 113.025 87C116.725 87 119.9 84.975 121.65 82H130.5V89.5ZM130.5 77H118.025C118.025 79.75 115.775 82 113.025 82C110.275 82 108.025 79.75 108.025 77H95.5L95.475 54.5H130.5V77Z" fill="white"/>
<path d="M172.425 54.5L184.5 66.575V89.5H149.5V54.5H172.425ZM172.425 49.5H149.5C146.75 49.5 144.5 51.75 144.5 54.5V89.5C144.5 92.25 146.75 94.5 149.5 94.5H184.5C187.25 94.5 189.5 92.25 189.5 89.5V66.575C189.5 65.25 188.975 63.975 188.025 63.05L175.95 50.975C175.025 50.025 173.75 49.5 172.425 49.5ZM154.5 79.5H179.5V84.5H154.5V79.5ZM154.5 69.5H179.5V74.5H154.5V69.5ZM154.5 59.5H172V64.5H154.5V59.5Z" fill="white"/>
<path d="M225 47H205C202.25 47 200.025 49.25 200.025 52L200 92C200 94.75 202.225 97 204.975 97H235C237.75 97 240 94.75 240 92V62L225 47ZM235 92H205V52H222.5V64.5H235V92ZM210 79.525L213.525 83.05L217.5 79.1V89.5H222.5V79.1L226.475 83.075L230 79.525L220.025 69.5L210 79.525Z" fill="white"/>
</svg>
